<?xml version="1.0" encoding="UTF-8" standalone="no"?>
<!-- Created with Inkscape (http://www.inkscape.org/) -->

<svg
   xmlns:dc="http://purl.org/dc/elements/1.1/"
   xmlns:cc="http://creativecommons.org/ns#"
   xmlns:rdf="http://www.w3.org/1999/02/22-rdf-syntax-ns#"
   xmlns:svg="http://www.w3.org/2000/svg"
   xmlns="http://www.w3.org/2000/svg"
   xmlns:sodipodi="http://sodipodi.sourceforge.net/DTD/sodipodi-0.dtd"
   xmlns:inkscape="http://www.inkscape.org/namespaces/inkscape"
   width="728px"
   height="90px"
   id="svg6732"
   version="1.1"
   inkscape:version="0.48.4 r9939"
   sodipodi:docname="icons.svg">
  <defs
     id="defs6734" />
  <sodipodi:namedview
     id="base"
     pagecolor="#ffffff"
     bordercolor="#666666"
     borderopacity="1.0"
     inkscape:pageopacity="0.0"
     inkscape:pageshadow="2"
     inkscape:zoom="1.0606602"
     inkscape:cx="483.50803"
     inkscape:cy="-67.02178"
     inkscape:document-units="px"
     inkscape:current-layer="layer1"
     showgrid="false"
     showguides="true"
     inkscape:guide-bbox="true"
     inkscape:window-width="1366"
     inkscape:window-height="721"
     inkscape:window-x="-2"
     inkscape:window-y="-3"
     inkscape:window-maximized="1">
    <sodipodi:guide
       orientation="0,1"
       position="344,10.666667"
       id="guide6846" />
    <sodipodi:guide
       orientation="0,1"
       position="136.23591,63.63961"
       id="guide6866" />
    <sodipodi:guide
       orientation="0,1"
       position="262.10091,-74.953319"
       id="guide6936" />
    <sodipodi:guide
       orientation="0,1"
       position="253.61563,-49.968879"
       id="guide6938" />
    <sodipodi:guide
       orientation="1,0"
       position="274.82884,-7.0710678"
       id="guide6940" />
    <sodipodi:guide
       orientation="1,0"
       position="299.81328,63.63961"
       id="guide6942" />
    <sodipodi:guide
       orientation="0,1"
       position="286.61395,-74.953319"
       id="guide6944" />
  </sodipodi:namedview>
  <metadata
     id="metadata6737">
    <rdf:RDF>
      <cc:Work
         rdf:about="">
        <dc:format>image/svg+xml</dc:format>
        <dc:type
           rdf:resource="http://purl.org/dc/dcmitype/StillImage" />
        <dc:title></dc:title>
      </cc:Work>
    </rdf:RDF>
  </metadata>
  <g
     id="layer1"
     inkscape:label="Layer 1"
     inkscape:groupmode="layer">
    <g
       transform="matrix(0.22708677,0,0,0.22708677,302.3653,213.06286)"
       id="g6676">
      <path
         inkscape:connector-curvature="0"
         id="path6638"
         d="m -901.42857,-816.42002 301.42857,0 0,220.2108 -301.42857,0 z"
         style="fill:none;stroke:#000000;stroke-width:10;stroke-linecap:butt;stroke-linejoin:miter;stroke-miterlimit:4;stroke-opacity:1;stroke-dasharray:none" />
      <path
         sodipodi:nodetypes="cccccc"
         inkscape:connector-curvature="0"
         id="path6640"
         d="m -800.08497,-634.65999 0,0 -26.28728,38.51823 152.16289,0 -25.78175,-38.51823 z"
         style="fill:none;stroke:#000000;stroke-width:10;stroke-linecap:butt;stroke-linejoin:miter;stroke-miterlimit:4;stroke-opacity:1;stroke-dasharray:none" />
      <path
         inkscape:connector-curvature="0"
         id="path6656"
         d="m -888.88349,-804.24747 38.2843,0 0,141.31991 -38.2843,0 z"
         style="fill:none;stroke:#000000;stroke-width:8;stroke-linecap:butt;stroke-linejoin:miter;stroke-miterlimit:4;stroke-opacity:1;stroke-dasharray:none" />
      <path
         inkscape:connector-curvature="0"
         id="path6658"
         d="m -839.38697,-804.24842 39.29635,0 0,140.81674 -39.29635,0 z"
         style="fill:none;stroke:#000000;stroke-width:8;stroke-linecap:butt;stroke-linejoin:miter;stroke-miterlimit:4;stroke-opacity:1;stroke-dasharray:none" />
      <path
         inkscape:connector-curvature="0"
         id="path6660"
         d="m -789.86061,-804.21954 79.64469,0 0,155.91127 -79.64469,0 z"
         style="fill:none;stroke:#000000;stroke-width:8;stroke-linecap:butt;stroke-linejoin:miter;stroke-miterlimit:4;stroke-opacity:1;stroke-dasharray:none" />
      <path
         inkscape:connector-curvature="0"
         id="path6662"
         d="m -699.98494,-804.24745 39.2944,0 0,141.31988 -39.2944,0 z"
         style="fill:none;stroke:#000000;stroke-width:8;stroke-linecap:butt;stroke-linejoin:miter;stroke-miterlimit:4;stroke-opacity:1;stroke-dasharray:none" />
      <path
         inkscape:connector-curvature="0"
         id="path6664"
         d="m -649.98243,-804.24749 37.27418,0 0,141.31995 -37.27418,0 z"
         style="fill:none;stroke:#000000;stroke-width:8;stroke-linecap:butt;stroke-linejoin:miter;stroke-miterlimit:4;stroke-opacity:1;stroke-dasharray:none" />
      <path
         inkscape:connector-curvature="0"
         id="path6672"
         d="m -800.04082,-623.48092 100.00511,0 0,0"
         style="fill:none;stroke:#000000;stroke-width:10;stroke-linecap:butt;stroke-linejoin:miter;stroke-miterlimit:4;stroke-opacity:1;stroke-dasharray:none" />
      <path
         inkscape:connector-curvature="0"
         id="path6674"
         d="m -808.79393,-610.34892 117.51133,0 0,0"
         style="fill:none;stroke:#000000;stroke-width:10;stroke-linecap:butt;stroke-linejoin:miter;stroke-miterlimit:4;stroke-opacity:1;stroke-dasharray:none" />
    </g>
    <g
       id="g6860"
       transform="matrix(0.30543527,0,0,0.30543527,127.20663,-58.582618)">
      <path
         inkscape:connector-curvature="0"
         id="path5202"
         d="m -386.71728,283.18995 27.14286,0 0,19.2857 10.7731,0 0,-19.2857 27.02158,0 0,19.2857 8.63389,0 0,-19.2857 30,0 0,58.5714 142.85715,32.1429 0,74.2857 -246.42858,0 z"
         style="fill:none;stroke:#000000;stroke-width:10;stroke-linecap:butt;stroke-linejoin:miter;stroke-miterlimit:4;stroke-opacity:1;stroke-dasharray:none" />
      <path
         inkscape:connector-curvature="0"
         id="path5204"
         d="m -348.80132,341.76135 27.02158,0 0,24.64286 -13.15182,7.50004 -13.86976,-8.21433 z"
         style="fill:none;stroke:#000000;stroke-width:10;stroke-linecap:butt;stroke-linejoin:miter;stroke-miterlimit:4;stroke-opacity:1;stroke-dasharray:none" />
      <path
         inkscape:connector-curvature="0"
         id="path5227"
         d="m -348.80132,448.18995 0,-33.57146 27.02158,0 0,33.57146 z"
         style="fill:none;stroke:#000000;stroke-width:10;stroke-linecap:butt;stroke-linejoin:miter;stroke-miterlimit:4;stroke-opacity:1;stroke-dasharray:none" />
      <path
         inkscape:connector-curvature="0"
         id="path5229"
         d="m -283.14585,373.90425 142.85715,0 -142.85715,-32.1429 z"
         style="fill:none;stroke:#000000;stroke-width:10;stroke-linecap:butt;stroke-linejoin:miter;stroke-miterlimit:4;stroke-opacity:1;stroke-dasharray:none" />
    </g>
    <path
       style="fill:none;stroke:#000000;stroke-width:1px;stroke-linecap:butt;stroke-linejoin:miter;stroke-opacity:1"
       d="m 35.425577,124.55279 0,0"
       id="path5259"
       inkscape:connector-curvature="0" />
    <g
       id="g6848"
       transform="matrix(0.17592418,0,0,0.17592418,186.09119,0.20657246)">
      <path
         inkscape:connector-curvature="0"
         id="path5245"
         d="m -46.002993,448.18995 160.000003,0 0,-106.4286 -36.766493,-39.2857 -81.8223603,0 -41.4111497,39.2857 z"
         style="fill:none;stroke:#000000;stroke-width:10;stroke-linecap:butt;stroke-linejoin:miter;stroke-miterlimit:4;stroke-opacity:1;stroke-dasharray:none" />
      <path
         inkscape:connector-curvature="0"
         id="path5253"
         d="m -5.6019933,302.47565 0,-72.867 81.8223603,0 0,72.867 z"
         style="fill:none;stroke:#000000;stroke-width:10;stroke-linecap:butt;stroke-linejoin:miter;stroke-miterlimit:4;stroke-opacity:1;stroke-dasharray:none" />
      <path
         inkscape:connector-curvature="0"
         id="path5255"
         d="m -5.6019933,229.60865 41.0275703,-41.4187 40.79479,41.4187 z"
         style="fill:none;stroke:#000000;stroke-width:10;stroke-linecap:butt;stroke-linejoin:miter;stroke-miterlimit:4;stroke-opacity:1;stroke-dasharray:none" />
      <path
         sodipodi:nodetypes="ccc"
         inkscape:connector-curvature="0"
         id="path5257"
         d="m 35.425577,188.18995 0,-35.3529 z"
         style="fill:none;stroke:#000000;stroke-width:10;stroke-linecap:butt;stroke-linejoin:miter;stroke-miterlimit:4;stroke-opacity:1;stroke-dasharray:none" />
      <path
         sodipodi:nodetypes="cccscc"
         inkscape:connector-curvature="0"
         id="path5273"
         d="m 10.055367,302.47565 15.15229,0 0,-19.2857 c 0,0 0,-11.1549 -7.44987,-11.1549 -7.70242,0 -7.70242,11.1549 -7.70242,11.1549 z"
         style="fill:none;stroke:#000000;stroke-width:10;stroke-linecap:butt;stroke-linejoin:miter;stroke-miterlimit:4;stroke-opacity:1;stroke-dasharray:none" />
      <path
         sodipodi:nodetypes="ccccsc"
         inkscape:connector-curvature="0"
         id="path5275"
         d="m 46.420867,283.18995 0,19.2857 16.16244,0 0,-19.2857 c 0,0 0,-11.1549 -8.08122,-11.1549 -8.08122,0 -8.08122,11.1549 -8.08122,11.1549 z"
         style="fill:none;stroke:#000000;stroke-width:10;stroke-linecap:butt;stroke-linejoin:miter;stroke-miterlimit:4;stroke-opacity:1;stroke-dasharray:none" />
      <path
         sodipodi:nodetypes="cccscc"
         inkscape:connector-curvature="0"
         id="path5281"
         d="m 25.207657,256.88275 21.21321,0 0,-20.07676 c 0,0 0,-7.19734 -10.99529,-7.19734 -10.21792,0 -10.21792,7.32361 -10.21792,7.32361 z"
         style="fill:none;stroke:#000000;stroke-width:10;stroke-linecap:butt;stroke-linejoin:miter;stroke-miterlimit:4;stroke-opacity:1;stroke-dasharray:none" />
      <path
         sodipodi:nodetypes="cc"
         inkscape:connector-curvature="0"
         id="path5283"
         d="m 25.207657,162.0024 21.21321,-0.0523"
         style="fill:none;stroke:#000000;stroke-width:10;stroke-linecap:butt;stroke-linejoin:miter;stroke-miterlimit:4;stroke-opacity:1;stroke-dasharray:none" />
      <path
         inkscape:connector-curvature="0"
         id="path5285"
         d="m 10.055367,448.18995 0,-74.2857 52.52794,0 0,74.2857 z"
         style="fill:none;stroke:#000000;stroke-width:10;stroke-linecap:butt;stroke-linejoin:miter;stroke-miterlimit:4;stroke-opacity:1;stroke-dasharray:none" />
      <path
         sodipodi:nodetypes="ccsc"
         inkscape:connector-curvature="0"
         id="path5289"
         d="m 10.055367,362.54063 52.52794,-0.0433 c 0,0 0,-24.52402 -27.15773,-24.52402 -25.37021,0 -25.37021,24.56735 -25.37021,24.56735 z"
         style="fill:none;stroke:#000000;stroke-width:10;stroke-linecap:butt;stroke-linejoin:miter;stroke-miterlimit:4;stroke-opacity:1;stroke-dasharray:none" />
    </g>
    <g
       id="g6868"
       transform="matrix(0.29991108,0,0,0.29991108,167.84709,-56.663306)">
      <path
         sodipodi:nodetypes="ccccccc"
         inkscape:connector-curvature="0"
         id="path5495"
         d="m 334.26355,448.28055 196.96692,0 0,-74.41217 -30.43629,-32.10703 -139.75843,-0.0906 -26.7722,32.19763 z"
         style="fill:none;stroke:#000000;stroke-width:10;stroke-linecap:butt;stroke-linejoin:miter;stroke-miterlimit:4;stroke-opacity:1;stroke-dasharray:none" />
      <path
         inkscape:connector-curvature="0"
         id="path5499"
         d="m 334.92514,373.90425 196.38107,0 0,0 0,0"
         style="fill:none;stroke:#000000;stroke-width:10;stroke-linecap:butt;stroke-linejoin:miter;stroke-miterlimit:4;stroke-opacity:1;stroke-dasharray:none" />
      <path
         sodipodi:nodetypes="ccsccc"
         inkscape:connector-curvature="0"
         id="path5509"
         d="m 421.13987,448.18995 0,-35.7143 c 0,0 12.85714,-17.1429 33.92857,-17.1429 23.92858,0 33.21428,17.1429 33.21428,17.1429 l 0,35.7143 z"
         style="fill:none;stroke:#000000;stroke-width:10;stroke-linecap:butt;stroke-linejoin:miter;stroke-miterlimit:4;stroke-opacity:1;stroke-dasharray:none" />
      <path
         inkscape:connector-curvature="0"
         id="path5511"
         d="m 366.66523,448.5324 -0.29638,-15.68489 21.04203,0 0,15.68489 z"
         style="fill:none;stroke:#000000;stroke-width:9.31512165;stroke-linecap:butt;stroke-linejoin:miter;stroke-miterlimit:4;stroke-opacity:1;stroke-dasharray:none" />
    </g>
    <path
       style="fill:none;stroke:#000000;stroke-width:2.48877835;stroke-linecap:butt;stroke-linejoin:miter;stroke-miterlimit:4;stroke-opacity:1;stroke-dasharray:none"
       d="m 342.93526,77.497955 71.85267,0 0,-12.634757 -6.99798,-6.55054 -6.34047,6.157639 -58.51422,0 z"
       id="path5495-4"
       inkscape:connector-curvature="0"
       sodipodi:nodetypes="ccccccc" />
    <g
       id="g6874"
       transform="translate(18,0)">
      <path
         inkscape:connector-curvature="0"
         id="path6421"
         d="m 413.33255,77.999331 10.79641,-5.171569 30.82207,0 10.44815,5.171569"
         style="fill:none;stroke:#000000;stroke-width:3.44771314;stroke-linecap:butt;stroke-linejoin:miter;stroke-miterlimit:4;stroke-opacity:1;stroke-dasharray:none" />
      <path
         inkscape:connector-curvature="0"
         id="path6421-7"
         d="m 413.07132,58.451487 10.79644,5.17157 30.82207,0 10.44812,-5.17157"
         style="fill:none;stroke:#000000;stroke-width:3.44771314;stroke-linecap:butt;stroke-linejoin:miter;stroke-miterlimit:4;stroke-opacity:1;stroke-dasharray:none" />
    </g>
    <g
       id="g5482"
       transform="matrix(0.47650518,0,0,0.47650518,-161.80152,57.850658)">
      <path
         sodipodi:nodetypes="ccccccc"
         inkscape:connector-curvature="0"
         id="path5245-31"
         d="m 805.56174,43.86809 53.6767,0 0,-38.1060403 -10.945,-11.75126 -31.6918,0 -11.0399,11.75126 z"
         style="fill:none;stroke:#000000;stroke-width:3.56648445;stroke-linecap:butt;stroke-linejoin:miter;stroke-miterlimit:4;stroke-opacity:1;stroke-dasharray:none" />
      <path
         sodipodi:nodetypes="cccc"
         inkscape:connector-curvature="0"
         id="path5255-8"
         d="m 816.66674,-5.9892103 16.3748,-16.7937697 15.265,16.7937697 z"
         style="fill:none;stroke:#000000;stroke-width:3.56648445;stroke-linecap:butt;stroke-linejoin:miter;stroke-miterlimit:4;stroke-opacity:1;stroke-dasharray:none" />
      <path
         sodipodi:nodetypes="ccc"
         inkscape:connector-curvature="0"
         id="path5257-3"
         d="m 833.04154,-20.78298 0,-12.60856 z"
         style="fill:none;stroke:#000000;stroke-width:3.56648445;stroke-linecap:butt;stroke-linejoin:miter;stroke-miterlimit:4;stroke-opacity:1;stroke-dasharray:none" />
      <path
         inkscape:connector-curvature="0"
         id="path5259-1"
         d="m 833.04154,-47.47908 0,0"
         style="fill:none;stroke:#000000;stroke-width:0.35664845px;stroke-linecap:butt;stroke-linejoin:miter;stroke-opacity:1" />
      <path
         sodipodi:nodetypes="cc"
         inkscape:connector-curvature="0"
         id="path5283-7"
         d="m 829.39734,-30.12273 7.5657,-0.0186"
         style="fill:none;stroke:#000000;stroke-width:3.56648445;stroke-linecap:butt;stroke-linejoin:miter;stroke-miterlimit:4;stroke-opacity:1;stroke-dasharray:none" />
      <path
         inkscape:connector-curvature="0"
         id="path5285-6"
         d="m 823.53694,43.3022 0,-26.49388 18.734,0 0,26.49388 z"
         style="fill:none;stroke:#000000;stroke-width:3.56648445;stroke-linecap:butt;stroke-linejoin:miter;stroke-miterlimit:4;stroke-opacity:1;stroke-dasharray:none" />
      <path
         sodipodi:nodetypes="ccsc"
         inkscape:connector-curvature="0"
         id="path5289-8"
         d="m 823.53694,12.7555 18.734,-0.0154 c 0,0 0,-8.7464603 -9.6858,-8.7464603 -9.0482,0 -9.0482,8.7619103 -9.0482,8.7619103 z"
         style="fill:none;stroke:#000000;stroke-width:3.56648445;stroke-linecap:butt;stroke-linejoin:miter;stroke-miterlimit:4;stroke-opacity:1;stroke-dasharray:none" />
    </g>
    <g
       id="g6952"
       transform="matrix(1.6732563,0,0,1.6732563,38.814282,-187.1387)">
      <path
         sodipodi:nodetypes="cssscc"
         inkscape:connector-curvature="0"
         id="path6946"
         d="m 279.18933,152.4611 c 0,0 3.13951,0.81057 3.85371,3.94378 0.63586,2.78953 -0.75048,1.46511 3.73758,1.46511 4.81339,0 3.5085,1.48365 4.14772,-1.34334 0.88494,-3.91369 3.58164,-4.06555 3.58164,-4.06555 z"
         style="fill:none;stroke:#000000;stroke-width:1px;stroke-linecap:butt;stroke-linejoin:miter;stroke-opacity:1" />
      <path
         sodipodi:nodetypes="ccc"
         inkscape:connector-curvature="0"
         id="path6948"
         d="m 274.82884,147.50531 c 4.79205,-4.88124 8.06533,0.42055 11.53309,3.76546 -0.0618,-17.54642 -8.00055,-7.77645 -8.00055,-7.77645"
         style="fill:none;stroke:#000000;stroke-width:0.84486634px;stroke-linecap:butt;stroke-linejoin:miter;stroke-opacity:1" />
      <path
         sodipodi:nodetypes="cccc"
         inkscape:connector-curvature="0"
         id="path6950"
         d="m 294.62842,143.49432 c 0,0 -7.21103,-9.57071 -7.64059,8.41658 5.69317,-10.84034 12.90302,-4.72929 12.90302,-4.72929 l 0,0"
         style="fill:none;stroke:#000000;stroke-width:0.84486634px;stroke-linecap:butt;stroke-linejoin:miter;stroke-opacity:1" />
    </g>
  </g>
</svg>
